<mxfile host="Electron" modified="2023-12-31T16:30:10.668Z" agent="Mozilla/5.0 (Windows NT 10.0; Win64; x64) AppleWebKit/537.36 (KHTML, like Gecko) draw.io/22.1.16 Chrome/120.0.6099.109 Electron/28.1.0 Safari/537.36" etag="fDMMXItQq8apnFwSMasl" version="22.1.16" type="device" pages="3">
  <diagram id="P5Ceji4rKThtuOgRhDsN" name="Présentation">
    <mxGraphModel dx="2362" dy="1317" grid="1" gridSize="10" guides="1" tooltips="1" connect="1" arrows="1" fold="1" page="0" pageScale="1" pageWidth="827" pageHeight="1169" math="0" shadow="0">
      <root>
        <mxCell id="0" />
        <mxCell id="1" parent="0" />
        <mxCell id="5MDUNRMLL6_gDZxnclpy-6" value="" style="rounded=1;whiteSpace=wrap;html=1;fillColor=none;dashed=1;" vertex="1" parent="1">
          <mxGeometry x="-510" y="-130" width="610" height="500" as="geometry" />
        </mxCell>
        <mxCell id="ixljmUH34HrJgTW0tlT--8" style="edgeStyle=orthogonalEdgeStyle;rounded=0;orthogonalLoop=1;jettySize=auto;html=1;entryX=0;entryY=0.5;entryDx=0;entryDy=0;" edge="1" parent="1" source="ixljmUH34HrJgTW0tlT--1" target="ixljmUH34HrJgTW0tlT--4">
          <mxGeometry relative="1" as="geometry" />
        </mxCell>
        <mxCell id="ixljmUH34HrJgTW0tlT--9" style="edgeStyle=orthogonalEdgeStyle;rounded=0;orthogonalLoop=1;jettySize=auto;html=1;entryX=0;entryY=0.5;entryDx=0;entryDy=0;" edge="1" parent="1" source="ixljmUH34HrJgTW0tlT--1" target="ixljmUH34HrJgTW0tlT--5">
          <mxGeometry relative="1" as="geometry" />
        </mxCell>
        <mxCell id="xo0ovaLZeYdiQQZl1WLk-10" style="edgeStyle=orthogonalEdgeStyle;rounded=0;orthogonalLoop=1;jettySize=auto;html=1;entryX=0;entryY=0.5;entryDx=0;entryDy=0;" edge="1" parent="1" source="ixljmUH34HrJgTW0tlT--1" target="xo0ovaLZeYdiQQZl1WLk-7">
          <mxGeometry relative="1" as="geometry" />
        </mxCell>
        <mxCell id="ixljmUH34HrJgTW0tlT--1" value="Gestion des finances" style="rounded=1;whiteSpace=wrap;html=1;" vertex="1" parent="1">
          <mxGeometry x="-480" y="80" width="120" height="60" as="geometry" />
        </mxCell>
        <mxCell id="ixljmUH34HrJgTW0tlT--3" value="&lt;h1&gt;Fonctionnalités&lt;/h1&gt;&lt;p&gt;Que fait cette application ?&lt;/p&gt;" style="text;html=1;strokeColor=none;fillColor=none;spacing=5;spacingTop=-20;whiteSpace=wrap;overflow=hidden;rounded=0;" vertex="1" parent="1">
          <mxGeometry x="-480" y="-120" width="190" height="70" as="geometry" />
        </mxCell>
        <mxCell id="xo0ovaLZeYdiQQZl1WLk-6" style="edgeStyle=orthogonalEdgeStyle;rounded=0;orthogonalLoop=1;jettySize=auto;html=1;entryX=0;entryY=0.5;entryDx=0;entryDy=0;" edge="1" parent="1" source="ixljmUH34HrJgTW0tlT--4" target="xo0ovaLZeYdiQQZl1WLk-5">
          <mxGeometry relative="1" as="geometry" />
        </mxCell>
        <mxCell id="ixljmUH34HrJgTW0tlT--4" value="Suivre les dépenses au fil de l&#39;eau" style="rounded=1;whiteSpace=wrap;html=1;" vertex="1" parent="1">
          <mxGeometry x="-280" y="80" width="120" height="60" as="geometry" />
        </mxCell>
        <mxCell id="xo0ovaLZeYdiQQZl1WLk-3" style="edgeStyle=orthogonalEdgeStyle;rounded=0;orthogonalLoop=1;jettySize=auto;html=1;entryX=0;entryY=0.5;entryDx=0;entryDy=0;" edge="1" parent="1" source="ixljmUH34HrJgTW0tlT--5" target="xo0ovaLZeYdiQQZl1WLk-1">
          <mxGeometry relative="1" as="geometry" />
        </mxCell>
        <mxCell id="xo0ovaLZeYdiQQZl1WLk-4" style="edgeStyle=orthogonalEdgeStyle;rounded=0;orthogonalLoop=1;jettySize=auto;html=1;entryX=0;entryY=0.5;entryDx=0;entryDy=0;" edge="1" parent="1" source="ixljmUH34HrJgTW0tlT--5" target="xo0ovaLZeYdiQQZl1WLk-2">
          <mxGeometry relative="1" as="geometry" />
        </mxCell>
        <mxCell id="ixljmUH34HrJgTW0tlT--5" value="Prévoir le budget" style="rounded=1;whiteSpace=wrap;html=1;" vertex="1" parent="1">
          <mxGeometry x="-280" y="180" width="120" height="60" as="geometry" />
        </mxCell>
        <mxCell id="xo0ovaLZeYdiQQZl1WLk-1" value="Prévoir le budget&lt;br&gt;Mensuel" style="rounded=1;whiteSpace=wrap;html=1;" vertex="1" parent="1">
          <mxGeometry x="-80" y="180" width="120" height="60" as="geometry" />
        </mxCell>
        <mxCell id="xo0ovaLZeYdiQQZl1WLk-2" value="Prévoir le budget&lt;br&gt;Annuel" style="rounded=1;whiteSpace=wrap;html=1;" vertex="1" parent="1">
          <mxGeometry x="-80" y="280" width="120" height="60" as="geometry" />
        </mxCell>
        <mxCell id="xo0ovaLZeYdiQQZl1WLk-5" value="Ajouter les dépenses par catégorie" style="rounded=1;whiteSpace=wrap;html=1;" vertex="1" parent="1">
          <mxGeometry x="-80" y="80" width="120" height="60" as="geometry" />
        </mxCell>
        <mxCell id="xo0ovaLZeYdiQQZl1WLk-9" style="edgeStyle=orthogonalEdgeStyle;rounded=0;orthogonalLoop=1;jettySize=auto;html=1;entryX=0;entryY=0.5;entryDx=0;entryDy=0;" edge="1" parent="1" source="xo0ovaLZeYdiQQZl1WLk-7" target="xo0ovaLZeYdiQQZl1WLk-8">
          <mxGeometry relative="1" as="geometry" />
        </mxCell>
        <mxCell id="xo0ovaLZeYdiQQZl1WLk-12" style="edgeStyle=orthogonalEdgeStyle;rounded=0;orthogonalLoop=1;jettySize=auto;html=1;entryX=0;entryY=0.5;entryDx=0;entryDy=0;" edge="1" parent="1" source="xo0ovaLZeYdiQQZl1WLk-7" target="xo0ovaLZeYdiQQZl1WLk-11">
          <mxGeometry relative="1" as="geometry" />
        </mxCell>
        <mxCell id="xo0ovaLZeYdiQQZl1WLk-7" value="Garder un historique" style="rounded=1;whiteSpace=wrap;html=1;" vertex="1" parent="1">
          <mxGeometry x="-280" y="-20" width="120" height="60" as="geometry" />
        </mxCell>
        <mxCell id="xo0ovaLZeYdiQQZl1WLk-8" value="Par mois / Par années" style="rounded=1;whiteSpace=wrap;html=1;" vertex="1" parent="1">
          <mxGeometry x="-80" y="-120" width="120" height="60" as="geometry" />
        </mxCell>
        <mxCell id="xo0ovaLZeYdiQQZl1WLk-11" value="Faire de statistiques" style="rounded=1;whiteSpace=wrap;html=1;" vertex="1" parent="1">
          <mxGeometry x="-80" y="-20" width="120" height="60" as="geometry" />
        </mxCell>
        <mxCell id="5MDUNRMLL6_gDZxnclpy-4" style="edgeStyle=orthogonalEdgeStyle;rounded=0;orthogonalLoop=1;jettySize=auto;html=1;entryX=0;entryY=0.5;entryDx=0;entryDy=0;" edge="1" parent="1" source="5MDUNRMLL6_gDZxnclpy-1" target="5MDUNRMLL6_gDZxnclpy-2">
          <mxGeometry relative="1" as="geometry" />
        </mxCell>
        <mxCell id="5MDUNRMLL6_gDZxnclpy-1" value="IHM&lt;br&gt;WebApp Angular" style="rounded=1;whiteSpace=wrap;html=1;" vertex="1" parent="1">
          <mxGeometry x="240" y="-40" width="120" height="60" as="geometry" />
        </mxCell>
        <mxCell id="5MDUNRMLL6_gDZxnclpy-5" style="edgeStyle=orthogonalEdgeStyle;rounded=0;orthogonalLoop=1;jettySize=auto;html=1;entryX=0;entryY=0.5;entryDx=0;entryDy=0;" edge="1" parent="1" source="5MDUNRMLL6_gDZxnclpy-2" target="5MDUNRMLL6_gDZxnclpy-3">
          <mxGeometry relative="1" as="geometry" />
        </mxCell>
        <mxCell id="5MDUNRMLL6_gDZxnclpy-2" value="API&lt;br&gt;SpringBoot" style="rounded=1;whiteSpace=wrap;html=1;" vertex="1" parent="1">
          <mxGeometry x="440" y="-40" width="120" height="60" as="geometry" />
        </mxCell>
        <mxCell id="5MDUNRMLL6_gDZxnclpy-3" value="BDD&lt;br&gt;???" style="rounded=1;whiteSpace=wrap;html=1;" vertex="1" parent="1">
          <mxGeometry x="640" y="-40" width="120" height="60" as="geometry" />
        </mxCell>
        <mxCell id="5MDUNRMLL6_gDZxnclpy-7" value="" style="rounded=1;whiteSpace=wrap;html=1;fillColor=none;dashed=1;" vertex="1" parent="1">
          <mxGeometry x="200" y="-130" width="610" height="210" as="geometry" />
        </mxCell>
        <mxCell id="5MDUNRMLL6_gDZxnclpy-8" value="&lt;h1&gt;Technologies&lt;/h1&gt;&lt;p&gt;Commetn est fait cette application ?&lt;/p&gt;" style="text;html=1;strokeColor=none;fillColor=none;spacing=5;spacingTop=-20;whiteSpace=wrap;overflow=hidden;rounded=0;" vertex="1" parent="1">
          <mxGeometry x="220" y="-120" width="210" height="70" as="geometry" />
        </mxCell>
      </root>
    </mxGraphModel>
  </diagram>
  <diagram id="yHidN_Przi8VYQda_AoA" name="Modèle">
    <mxGraphModel dx="1962" dy="917" grid="1" gridSize="10" guides="1" tooltips="1" connect="1" arrows="1" fold="1" page="0" pageScale="1" pageWidth="827" pageHeight="1169" math="0" shadow="0">
      <root>
        <mxCell id="0" />
        <mxCell id="1" parent="0" />
        <mxCell id="NH5Gq3jinRYm4cNYVrfn-13" value="Transaction" style="swimlane;fontStyle=0;childLayout=stackLayout;horizontal=1;startSize=30;horizontalStack=0;resizeParent=1;resizeParentMax=0;resizeLast=0;collapsible=1;marginBottom=0;whiteSpace=wrap;html=1;" vertex="1" parent="1">
          <mxGeometry x="-340" y="80" width="140" height="210" as="geometry" />
        </mxCell>
        <mxCell id="NH5Gq3jinRYm4cNYVrfn-14" value="id" style="text;strokeColor=none;fillColor=none;align=left;verticalAlign=middle;spacingLeft=4;spacingRight=4;overflow=hidden;points=[[0,0.5],[1,0.5]];portConstraint=eastwest;rotatable=0;whiteSpace=wrap;html=1;" vertex="1" parent="NH5Gq3jinRYm4cNYVrfn-13">
          <mxGeometry y="30" width="140" height="30" as="geometry" />
        </mxCell>
        <mxCell id="NH5Gq3jinRYm4cNYVrfn-23" value="name" style="text;strokeColor=none;fillColor=none;align=left;verticalAlign=middle;spacingLeft=4;spacingRight=4;overflow=hidden;points=[[0,0.5],[1,0.5]];portConstraint=eastwest;rotatable=0;whiteSpace=wrap;html=1;" vertex="1" parent="NH5Gq3jinRYm4cNYVrfn-13">
          <mxGeometry y="60" width="140" height="30" as="geometry" />
        </mxCell>
        <mxCell id="NH5Gq3jinRYm4cNYVrfn-15" value="amount" style="text;strokeColor=none;fillColor=none;align=left;verticalAlign=middle;spacingLeft=4;spacingRight=4;overflow=hidden;points=[[0,0.5],[1,0.5]];portConstraint=eastwest;rotatable=0;whiteSpace=wrap;html=1;" vertex="1" parent="NH5Gq3jinRYm4cNYVrfn-13">
          <mxGeometry y="90" width="140" height="30" as="geometry" />
        </mxCell>
        <mxCell id="NH5Gq3jinRYm4cNYVrfn-16" value="category" style="text;strokeColor=none;fillColor=none;align=left;verticalAlign=middle;spacingLeft=4;spacingRight=4;overflow=hidden;points=[[0,0.5],[1,0.5]];portConstraint=eastwest;rotatable=0;whiteSpace=wrap;html=1;" vertex="1" parent="NH5Gq3jinRYm4cNYVrfn-13">
          <mxGeometry y="120" width="140" height="30" as="geometry" />
        </mxCell>
        <mxCell id="NH5Gq3jinRYm4cNYVrfn-29" value="date" style="text;strokeColor=none;fillColor=none;align=left;verticalAlign=middle;spacingLeft=4;spacingRight=4;overflow=hidden;points=[[0,0.5],[1,0.5]];portConstraint=eastwest;rotatable=0;whiteSpace=wrap;html=1;" vertex="1" parent="NH5Gq3jinRYm4cNYVrfn-13">
          <mxGeometry y="150" width="140" height="30" as="geometry" />
        </mxCell>
        <mxCell id="NH5Gq3jinRYm4cNYVrfn-17" value="account" style="text;strokeColor=none;fillColor=none;align=left;verticalAlign=middle;spacingLeft=4;spacingRight=4;overflow=hidden;points=[[0,0.5],[1,0.5]];portConstraint=eastwest;rotatable=0;whiteSpace=wrap;html=1;" vertex="1" parent="NH5Gq3jinRYm4cNYVrfn-13">
          <mxGeometry y="180" width="140" height="30" as="geometry" />
        </mxCell>
        <mxCell id="NH5Gq3jinRYm4cNYVrfn-18" value="Account" style="swimlane;fontStyle=0;childLayout=stackLayout;horizontal=1;startSize=30;horizontalStack=0;resizeParent=1;resizeParentMax=0;resizeLast=0;collapsible=1;marginBottom=0;whiteSpace=wrap;html=1;" vertex="1" parent="1">
          <mxGeometry x="-80" y="80" width="140" height="150" as="geometry" />
        </mxCell>
        <mxCell id="NH5Gq3jinRYm4cNYVrfn-19" value="id" style="text;strokeColor=none;fillColor=none;align=left;verticalAlign=middle;spacingLeft=4;spacingRight=4;overflow=hidden;points=[[0,0.5],[1,0.5]];portConstraint=eastwest;rotatable=0;whiteSpace=wrap;html=1;" vertex="1" parent="NH5Gq3jinRYm4cNYVrfn-18">
          <mxGeometry y="30" width="140" height="30" as="geometry" />
        </mxCell>
        <mxCell id="NH5Gq3jinRYm4cNYVrfn-20" value="name" style="text;strokeColor=none;fillColor=none;align=left;verticalAlign=middle;spacingLeft=4;spacingRight=4;overflow=hidden;points=[[0,0.5],[1,0.5]];portConstraint=eastwest;rotatable=0;whiteSpace=wrap;html=1;" vertex="1" parent="NH5Gq3jinRYm4cNYVrfn-18">
          <mxGeometry y="60" width="140" height="30" as="geometry" />
        </mxCell>
        <mxCell id="NH5Gq3jinRYm4cNYVrfn-21" value="category" style="text;strokeColor=none;fillColor=none;align=left;verticalAlign=middle;spacingLeft=4;spacingRight=4;overflow=hidden;points=[[0,0.5],[1,0.5]];portConstraint=eastwest;rotatable=0;whiteSpace=wrap;html=1;" vertex="1" parent="NH5Gq3jinRYm4cNYVrfn-18">
          <mxGeometry y="90" width="140" height="30" as="geometry" />
        </mxCell>
        <mxCell id="NH5Gq3jinRYm4cNYVrfn-28" value="balance" style="text;strokeColor=none;fillColor=none;align=left;verticalAlign=middle;spacingLeft=4;spacingRight=4;overflow=hidden;points=[[0,0.5],[1,0.5]];portConstraint=eastwest;rotatable=0;whiteSpace=wrap;html=1;" vertex="1" parent="NH5Gq3jinRYm4cNYVrfn-18">
          <mxGeometry y="120" width="140" height="30" as="geometry" />
        </mxCell>
        <mxCell id="NH5Gq3jinRYm4cNYVrfn-24" value="" style="endArrow=classic;html=1;rounded=0;exitX=1;exitY=0.5;exitDx=0;exitDy=0;entryX=0;entryY=0.5;entryDx=0;entryDy=0;" edge="1" parent="1" source="NH5Gq3jinRYm4cNYVrfn-17" target="NH5Gq3jinRYm4cNYVrfn-19">
          <mxGeometry width="50" height="50" relative="1" as="geometry">
            <mxPoint x="-60" y="310" as="sourcePoint" />
            <mxPoint x="-10" y="260" as="targetPoint" />
          </mxGeometry>
        </mxCell>
        <mxCell id="I3M6EABVvvdu7RdUXKrD-1" value="Budget" style="swimlane;fontStyle=0;childLayout=stackLayout;horizontal=1;startSize=30;horizontalStack=0;resizeParent=1;resizeParentMax=0;resizeLast=0;collapsible=1;marginBottom=0;whiteSpace=wrap;html=1;" vertex="1" parent="1">
          <mxGeometry x="180" y="80" width="140" height="150" as="geometry" />
        </mxCell>
        <mxCell id="I3M6EABVvvdu7RdUXKrD-2" value="id" style="text;strokeColor=none;fillColor=none;align=left;verticalAlign=middle;spacingLeft=4;spacingRight=4;overflow=hidden;points=[[0,0.5],[1,0.5]];portConstraint=eastwest;rotatable=0;whiteSpace=wrap;html=1;" vertex="1" parent="I3M6EABVvvdu7RdUXKrD-1">
          <mxGeometry y="30" width="140" height="30" as="geometry" />
        </mxCell>
        <mxCell id="I3M6EABVvvdu7RdUXKrD-3" value="name" style="text;strokeColor=none;fillColor=none;align=left;verticalAlign=middle;spacingLeft=4;spacingRight=4;overflow=hidden;points=[[0,0.5],[1,0.5]];portConstraint=eastwest;rotatable=0;whiteSpace=wrap;html=1;" vertex="1" parent="I3M6EABVvvdu7RdUXKrD-1">
          <mxGeometry y="60" width="140" height="30" as="geometry" />
        </mxCell>
        <mxCell id="I3M6EABVvvdu7RdUXKrD-4" value="type" style="text;strokeColor=none;fillColor=none;align=left;verticalAlign=middle;spacingLeft=4;spacingRight=4;overflow=hidden;points=[[0,0.5],[1,0.5]];portConstraint=eastwest;rotatable=0;whiteSpace=wrap;html=1;" vertex="1" parent="I3M6EABVvvdu7RdUXKrD-1">
          <mxGeometry y="90" width="140" height="30" as="geometry" />
        </mxCell>
        <mxCell id="sTAW4JDCMV79uyD3orJD-11" value="items" style="text;strokeColor=none;fillColor=none;align=left;verticalAlign=middle;spacingLeft=4;spacingRight=4;overflow=hidden;points=[[0,0.5],[1,0.5]];portConstraint=eastwest;rotatable=0;whiteSpace=wrap;html=1;" vertex="1" parent="I3M6EABVvvdu7RdUXKrD-1">
          <mxGeometry y="120" width="140" height="30" as="geometry" />
        </mxCell>
        <mxCell id="sTAW4JDCMV79uyD3orJD-5" value="BudgetItem" style="swimlane;fontStyle=0;childLayout=stackLayout;horizontal=1;startSize=30;horizontalStack=0;resizeParent=1;resizeParentMax=0;resizeLast=0;collapsible=1;marginBottom=0;whiteSpace=wrap;html=1;" vertex="1" parent="1">
          <mxGeometry x="440" y="80" width="140" height="150" as="geometry" />
        </mxCell>
        <mxCell id="sTAW4JDCMV79uyD3orJD-6" value="id" style="text;strokeColor=none;fillColor=none;align=left;verticalAlign=middle;spacingLeft=4;spacingRight=4;overflow=hidden;points=[[0,0.5],[1,0.5]];portConstraint=eastwest;rotatable=0;whiteSpace=wrap;html=1;" vertex="1" parent="sTAW4JDCMV79uyD3orJD-5">
          <mxGeometry y="30" width="140" height="30" as="geometry" />
        </mxCell>
        <mxCell id="sTAW4JDCMV79uyD3orJD-7" value="name" style="text;strokeColor=none;fillColor=none;align=left;verticalAlign=middle;spacingLeft=4;spacingRight=4;overflow=hidden;points=[[0,0.5],[1,0.5]];portConstraint=eastwest;rotatable=0;whiteSpace=wrap;html=1;" vertex="1" parent="sTAW4JDCMV79uyD3orJD-5">
          <mxGeometry y="60" width="140" height="30" as="geometry" />
        </mxCell>
        <mxCell id="sTAW4JDCMV79uyD3orJD-8" value="amount" style="text;strokeColor=none;fillColor=none;align=left;verticalAlign=middle;spacingLeft=4;spacingRight=4;overflow=hidden;points=[[0,0.5],[1,0.5]];portConstraint=eastwest;rotatable=0;whiteSpace=wrap;html=1;" vertex="1" parent="sTAW4JDCMV79uyD3orJD-5">
          <mxGeometry y="90" width="140" height="30" as="geometry" />
        </mxCell>
        <mxCell id="sTAW4JDCMV79uyD3orJD-9" value="category" style="text;strokeColor=none;fillColor=none;align=left;verticalAlign=middle;spacingLeft=4;spacingRight=4;overflow=hidden;points=[[0,0.5],[1,0.5]];portConstraint=eastwest;rotatable=0;whiteSpace=wrap;html=1;" vertex="1" parent="sTAW4JDCMV79uyD3orJD-5">
          <mxGeometry y="120" width="140" height="30" as="geometry" />
        </mxCell>
        <mxCell id="sTAW4JDCMV79uyD3orJD-12" style="edgeStyle=orthogonalEdgeStyle;rounded=0;orthogonalLoop=1;jettySize=auto;html=1;entryX=0;entryY=0.5;entryDx=0;entryDy=0;" edge="1" parent="1" source="sTAW4JDCMV79uyD3orJD-11" target="sTAW4JDCMV79uyD3orJD-6">
          <mxGeometry relative="1" as="geometry" />
        </mxCell>
      </root>
    </mxGraphModel>
  </diagram>
  <diagram name="Architecture Applicative" id="EvrR3A47j7e43HU0EUbd">
    <mxGraphModel dx="1962" dy="917" grid="1" gridSize="10" guides="1" tooltips="1" connect="1" arrows="1" fold="1" page="0" pageScale="1" pageWidth="827" pageHeight="1169" math="0" shadow="0">
      <root>
        <mxCell id="0" />
        <mxCell id="1" parent="0" />
        <mxCell id="9191Cs5K0C6Pvr_g5WQQ-1" value="µBack FinanciCraft" style="rounded=1;whiteSpace=wrap;html=1;verticalAlign=top;" vertex="1" parent="1">
          <mxGeometry x="200" y="270" width="520" height="410" as="geometry" />
        </mxCell>
        <mxCell id="9191Cs5K0C6Pvr_g5WQQ-3" value="µFront FinanciCraft" style="rounded=1;whiteSpace=wrap;html=1;verticalAlign=top;" vertex="1" parent="1">
          <mxGeometry x="-360" y="40" width="440" height="250" as="geometry" />
        </mxCell>
        <mxCell id="bU2OLGuSKdgVq8J1SF-N-1" value="BDD" style="shape=cylinder3;whiteSpace=wrap;html=1;boundedLbl=1;backgroundOutline=1;size=15;" vertex="1" parent="1">
          <mxGeometry x="440" y="760" width="60" height="80" as="geometry" />
        </mxCell>
        <mxCell id="-3QIMvm-eczaP8TPVvHU-4" style="edgeStyle=orthogonalEdgeStyle;rounded=0;orthogonalLoop=1;jettySize=auto;html=1;entryX=0.5;entryY=0;entryDx=0;entryDy=0;" edge="1" parent="1" source="yTHOVLSIzpQ96ne8PfOA-1" target="-3QIMvm-eczaP8TPVvHU-3">
          <mxGeometry relative="1" as="geometry" />
        </mxCell>
        <mxCell id="yTHOVLSIzpQ96ne8PfOA-1" value="TransactionDS" style="rounded=1;whiteSpace=wrap;html=1;fillColor=#e3c800;fontColor=#000000;strokeColor=#B09500;" vertex="1" parent="1">
          <mxGeometry x="260" y="460" width="120" height="60" as="geometry" />
        </mxCell>
        <mxCell id="-3QIMvm-eczaP8TPVvHU-2" style="edgeStyle=orthogonalEdgeStyle;rounded=0;orthogonalLoop=1;jettySize=auto;html=1;entryX=0.5;entryY=0;entryDx=0;entryDy=0;" edge="1" parent="1" source="-3QIMvm-eczaP8TPVvHU-1" target="yTHOVLSIzpQ96ne8PfOA-1">
          <mxGeometry relative="1" as="geometry" />
        </mxCell>
        <mxCell id="-3QIMvm-eczaP8TPVvHU-1" value="TransactionRC" style="rounded=1;whiteSpace=wrap;html=1;fillColor=#008a00;fontColor=#ffffff;strokeColor=#005700;" vertex="1" parent="1">
          <mxGeometry x="260" y="320" width="120" height="60" as="geometry" />
        </mxCell>
        <mxCell id="-3QIMvm-eczaP8TPVvHU-3" value="TransactionRepository" style="rounded=1;whiteSpace=wrap;html=1;fillColor=#a20025;fontColor=#ffffff;strokeColor=#6F0000;" vertex="1" parent="1">
          <mxGeometry x="260" y="600" width="120" height="60" as="geometry" />
        </mxCell>
        <mxCell id="-3QIMvm-eczaP8TPVvHU-7" style="edgeStyle=orthogonalEdgeStyle;rounded=0;orthogonalLoop=1;jettySize=auto;html=1;entryX=0.5;entryY=0;entryDx=0;entryDy=0;" edge="1" parent="1" source="-3QIMvm-eczaP8TPVvHU-6" target="-3QIMvm-eczaP8TPVvHU-1">
          <mxGeometry relative="1" as="geometry" />
        </mxCell>
        <mxCell id="fgSj3LCF7gp-o8QEUicL-6" style="edgeStyle=orthogonalEdgeStyle;rounded=0;orthogonalLoop=1;jettySize=auto;html=1;entryX=0.5;entryY=0;entryDx=0;entryDy=0;" edge="1" parent="1" source="-3QIMvm-eczaP8TPVvHU-6" target="m_mvcd1KsdCFXJCWL3KX-5">
          <mxGeometry relative="1" as="geometry" />
        </mxCell>
        <mxCell id="fgSj3LCF7gp-o8QEUicL-7" style="edgeStyle=orthogonalEdgeStyle;rounded=0;orthogonalLoop=1;jettySize=auto;html=1;entryX=0.5;entryY=0;entryDx=0;entryDy=0;" edge="1" parent="1" source="-3QIMvm-eczaP8TPVvHU-6" target="fgSj3LCF7gp-o8QEUicL-4">
          <mxGeometry relative="1" as="geometry" />
        </mxCell>
        <mxCell id="-3QIMvm-eczaP8TPVvHU-6" value="IHM" style="rounded=1;whiteSpace=wrap;html=1;" vertex="1" parent="1">
          <mxGeometry x="-200" y="130" width="120" height="60" as="geometry" />
        </mxCell>
        <mxCell id="m_mvcd1KsdCFXJCWL3KX-2" style="edgeStyle=orthogonalEdgeStyle;rounded=0;orthogonalLoop=1;jettySize=auto;html=1;entryX=0.5;entryY=0;entryDx=0;entryDy=0;" edge="1" parent="1" source="m_mvcd1KsdCFXJCWL3KX-3" target="m_mvcd1KsdCFXJCWL3KX-6">
          <mxGeometry relative="1" as="geometry" />
        </mxCell>
        <mxCell id="m_mvcd1KsdCFXJCWL3KX-3" value="AccountDS" style="rounded=1;whiteSpace=wrap;html=1;fillColor=#e3c800;fontColor=#000000;strokeColor=#B09500;" vertex="1" parent="1">
          <mxGeometry x="410" y="460" width="120" height="60" as="geometry" />
        </mxCell>
        <mxCell id="m_mvcd1KsdCFXJCWL3KX-4" style="edgeStyle=orthogonalEdgeStyle;rounded=0;orthogonalLoop=1;jettySize=auto;html=1;entryX=0.5;entryY=0;entryDx=0;entryDy=0;" edge="1" parent="1" source="m_mvcd1KsdCFXJCWL3KX-5" target="m_mvcd1KsdCFXJCWL3KX-3">
          <mxGeometry relative="1" as="geometry" />
        </mxCell>
        <mxCell id="m_mvcd1KsdCFXJCWL3KX-5" value="AccountRC" style="rounded=1;whiteSpace=wrap;html=1;fillColor=#008a00;fontColor=#ffffff;strokeColor=#005700;" vertex="1" parent="1">
          <mxGeometry x="410" y="320" width="120" height="60" as="geometry" />
        </mxCell>
        <mxCell id="m_mvcd1KsdCFXJCWL3KX-6" value="AccountRepository" style="rounded=1;whiteSpace=wrap;html=1;fillColor=#a20025;fontColor=#ffffff;strokeColor=#6F0000;" vertex="1" parent="1">
          <mxGeometry x="410" y="600" width="120" height="60" as="geometry" />
        </mxCell>
        <mxCell id="fgSj3LCF7gp-o8QEUicL-1" style="edgeStyle=orthogonalEdgeStyle;rounded=0;orthogonalLoop=1;jettySize=auto;html=1;entryX=0.5;entryY=0;entryDx=0;entryDy=0;" edge="1" parent="1" source="fgSj3LCF7gp-o8QEUicL-2" target="fgSj3LCF7gp-o8QEUicL-5">
          <mxGeometry relative="1" as="geometry" />
        </mxCell>
        <mxCell id="fgSj3LCF7gp-o8QEUicL-2" value="BudgetDS" style="rounded=1;whiteSpace=wrap;html=1;fillColor=#e3c800;fontColor=#000000;strokeColor=#B09500;" vertex="1" parent="1">
          <mxGeometry x="560" y="460" width="120" height="60" as="geometry" />
        </mxCell>
        <mxCell id="fgSj3LCF7gp-o8QEUicL-3" style="edgeStyle=orthogonalEdgeStyle;rounded=0;orthogonalLoop=1;jettySize=auto;html=1;entryX=0.5;entryY=0;entryDx=0;entryDy=0;" edge="1" parent="1" source="fgSj3LCF7gp-o8QEUicL-4" target="fgSj3LCF7gp-o8QEUicL-2">
          <mxGeometry relative="1" as="geometry" />
        </mxCell>
        <mxCell id="fgSj3LCF7gp-o8QEUicL-4" value="BudgetRC" style="rounded=1;whiteSpace=wrap;html=1;fillColor=#008a00;fontColor=#ffffff;strokeColor=#005700;" vertex="1" parent="1">
          <mxGeometry x="560" y="320" width="120" height="60" as="geometry" />
        </mxCell>
        <mxCell id="fgSj3LCF7gp-o8QEUicL-5" value="BudgetRepository" style="rounded=1;whiteSpace=wrap;html=1;fillColor=#a20025;fontColor=#ffffff;strokeColor=#6F0000;" vertex="1" parent="1">
          <mxGeometry x="560" y="600" width="120" height="60" as="geometry" />
        </mxCell>
        <mxCell id="fgSj3LCF7gp-o8QEUicL-8" style="edgeStyle=orthogonalEdgeStyle;rounded=0;orthogonalLoop=1;jettySize=auto;html=1;entryX=0.5;entryY=0;entryDx=0;entryDy=0;entryPerimeter=0;" edge="1" parent="1" source="m_mvcd1KsdCFXJCWL3KX-6" target="bU2OLGuSKdgVq8J1SF-N-1">
          <mxGeometry relative="1" as="geometry" />
        </mxCell>
        <mxCell id="fgSj3LCF7gp-o8QEUicL-9" style="edgeStyle=orthogonalEdgeStyle;rounded=0;orthogonalLoop=1;jettySize=auto;html=1;entryX=0.5;entryY=0;entryDx=0;entryDy=0;entryPerimeter=0;" edge="1" parent="1" source="fgSj3LCF7gp-o8QEUicL-5" target="bU2OLGuSKdgVq8J1SF-N-1">
          <mxGeometry relative="1" as="geometry">
            <Array as="points">
              <mxPoint x="620" y="720" />
              <mxPoint x="470" y="720" />
            </Array>
          </mxGeometry>
        </mxCell>
        <mxCell id="fgSj3LCF7gp-o8QEUicL-10" style="edgeStyle=orthogonalEdgeStyle;rounded=0;orthogonalLoop=1;jettySize=auto;html=1;entryX=0.5;entryY=0;entryDx=0;entryDy=0;entryPerimeter=0;" edge="1" parent="1" source="-3QIMvm-eczaP8TPVvHU-3" target="bU2OLGuSKdgVq8J1SF-N-1">
          <mxGeometry relative="1" as="geometry">
            <Array as="points">
              <mxPoint x="320" y="720" />
              <mxPoint x="470" y="720" />
            </Array>
          </mxGeometry>
        </mxCell>
        <mxCell id="fgSj3LCF7gp-o8QEUicL-11" value="" style="group" vertex="1" connectable="0" parent="1">
          <mxGeometry x="-360" y="360" width="230" height="440" as="geometry" />
        </mxCell>
        <mxCell id="m_mvcd1KsdCFXJCWL3KX-1" value="" style="rounded=1;whiteSpace=wrap;html=1;fillColor=none;dashed=1;" vertex="1" parent="fgSj3LCF7gp-o8QEUicL-11">
          <mxGeometry width="230" height="440" as="geometry" />
        </mxCell>
        <mxCell id="9191Cs5K0C6Pvr_g5WQQ-4" value="RestController" style="rounded=1;whiteSpace=wrap;html=1;fillColor=#008a00;fontColor=#ffffff;strokeColor=#005700;" vertex="1" parent="fgSj3LCF7gp-o8QEUicL-11">
          <mxGeometry x="60" y="70" width="120" height="60" as="geometry" />
        </mxCell>
        <mxCell id="bU2OLGuSKdgVq8J1SF-N-2" value="ApplicationService" style="rounded=1;whiteSpace=wrap;html=1;fillColor=#1ba1e2;fontColor=#ffffff;strokeColor=#006EAF;" vertex="1" parent="fgSj3LCF7gp-o8QEUicL-11">
          <mxGeometry x="60" y="160" width="120" height="60" as="geometry" />
        </mxCell>
        <mxCell id="bU2OLGuSKdgVq8J1SF-N-3" value="DomainService" style="rounded=1;whiteSpace=wrap;html=1;fillColor=#e3c800;fontColor=#000000;strokeColor=#B09500;" vertex="1" parent="fgSj3LCF7gp-o8QEUicL-11">
          <mxGeometry x="60" y="250" width="120" height="60" as="geometry" />
        </mxCell>
        <mxCell id="bU2OLGuSKdgVq8J1SF-N-4" value="Repository" style="rounded=1;whiteSpace=wrap;html=1;fillColor=#a20025;fontColor=#ffffff;strokeColor=#6F0000;" vertex="1" parent="fgSj3LCF7gp-o8QEUicL-11">
          <mxGeometry x="60" y="340" width="120" height="60" as="geometry" />
        </mxCell>
        <mxCell id="LwjhmU0cSC9vU8cQp85G-2" value="&lt;h1&gt;Légende&lt;/h1&gt;" style="text;html=1;strokeColor=none;fillColor=none;spacing=5;spacingTop=-20;whiteSpace=wrap;overflow=hidden;rounded=0;verticalAlign=middle;align=center;" vertex="1" parent="fgSj3LCF7gp-o8QEUicL-11">
          <mxGeometry y="20" width="230" height="40" as="geometry" />
        </mxCell>
      </root>
    </mxGraphModel>
  </diagram>
</mxfile>
